<?xml version="1.0" encoding="UTF-8" standalone="no"?>
<!-- Created with Inkscape (http://www.inkscape.org/) -->

<svg
   width="210mm"
   height="297mm"
   viewBox="0 0 210 297"
   version="1.1"
   id="svg5"
   sodipodi:docname="collegeStrategistSVG.svg"
   inkscape:version="1.2.1 (9c6d41e, 2022-07-14)"
   xmlns:inkscape="http://www.inkscape.org/namespaces/inkscape"
   xmlns:sodipodi="http://sodipodi.sourceforge.net/DTD/sodipodi-0.dtd"
   xmlns="http://www.w3.org/2000/svg"
   xmlns:svg="http://www.w3.org/2000/svg">
  <sodipodi:namedview
     id="namedview7"
     pagecolor="#ffffff"
     bordercolor="#000000"
     borderopacity="0.25"
     inkscape:showpageshadow="2"
     inkscape:pageopacity="0.0"
     inkscape:pagecheckerboard="0"
     inkscape:deskcolor="#d1d1d1"
     inkscape:document-units="mm"
     showgrid="false"
     inkscape:zoom="0.50867705"
     inkscape:cx="278.17257"
     inkscape:cy="343.04673"
     inkscape:window-width="1390"
     inkscape:window-height="721"
     inkscape:window-x="1534"
     inkscape:window-y="25"
     inkscape:window-maximized="0"
     inkscape:current-layer="layer1" />
  <defs
     id="defs2">
    <rect
       x="424.63091"
       y="615.32165"
       width="269.32609"
       height="110.0895"
       id="rect10966" />
    <rect
       x="460.01682"
       y="601.56046"
       width="253.59902"
       height="149.40717"
       id="rect10954" />
    <rect
       x="434.46033"
       y="674.29816"
       width="288.98493"
       height="127.78245"
       id="rect10098" />
    <rect
       x="355.82498"
       y="456.08506"
       width="320.43907"
       height="112.05538"
       id="rect9366" />
    <rect
       x="285.05316"
       y="186.75897"
       width="133.6801"
       height="64.874167"
       id="rect8610" />
    <rect
       x="204.45192"
       y="84.533006"
       width="300.78023"
       height="125.81657"
       id="rect8600" />
    <rect
       x="377.4497"
       y="306.67788"
       width="279.15551"
       height="271.29197"
       id="rect8593" />
    <rect
       x="585.83339"
       y="1034.0549"
       width="387.27912"
       height="379.41559"
       id="rect8587" />
    <rect
       x="188.72485"
       y="542.58395"
       width="68.80593"
       height="251.63313"
       id="rect8581" />
    <rect
       x="263.42844"
       y="560.2769"
       width="70.771819"
       height="294.88258"
       id="rect8575" />
    <rect
       x="347.96144"
       y="452.15329"
       width="78.635354"
       height="267.36021"
       id="rect8519" />
    <inkscape:path-effect
       effect="simplify"
       id="path-effect7396"
       is_visible="true"
       lpeversion="1"
       steps="1"
       threshold="0.00172414"
       smooth_angles="360"
       helper_size="0"
       simplify_individual_paths="false"
       simplify_just_coalesce="false" />
    <inkscape:path-effect
       effect="simplify"
       id="path-effect7392"
       is_visible="true"
       lpeversion="1"
       steps="1"
       threshold="0.00172414"
       smooth_angles="360"
       helper_size="0"
       simplify_individual_paths="false"
       simplify_just_coalesce="false" />
    <inkscape:path-effect
       effect="simplify"
       id="path-effect7384"
       is_visible="true"
       lpeversion="1"
       steps="1"
       threshold="0.00172414"
       smooth_angles="360"
       helper_size="0"
       simplify_individual_paths="false"
       simplify_just_coalesce="false" />
    <inkscape:path-effect
       effect="simplify"
       id="path-effect7380"
       is_visible="true"
       lpeversion="1"
       steps="1"
       threshold="0.00172414"
       smooth_angles="360"
       helper_size="0"
       simplify_individual_paths="false"
       simplify_just_coalesce="false" />
    <rect
       x="332.23437"
       y="513.09569"
       width="277.18963"
       height="355.82498"
       id="rect1750" />
    <rect
       x="106.15773"
       y="678.22993"
       width="579.93574"
       height="640.87814"
       id="rect1744" />
    <rect
       x="577.96986"
       y="935.76072"
       width="45.215329"
       height="583.86751"
       id="rect1738" />
    <rect
       x="88.464774"
       y="670.3664"
       width="570.10632"
       height="634.98049"
       id="rect1732" />
  </defs>
  <g
     inkscape:label="Layer 1"
     inkscape:groupmode="layer"
     id="layer1">
    <text
       xml:space="preserve"
       transform="scale(0.26458333)"
       id="text1730"
       style="fill:#00ffff;stroke:#9f0000;stroke-width:2.38110236;white-space:pre;shape-inside:url(#rect1732)" />
    <text
       xml:space="preserve"
       transform="scale(0.26458333)"
       id="text1736"
       style="fill:#00ffff;stroke:#9f0000;stroke-width:2.38110236;white-space:pre;shape-inside:url(#rect1738)" />
    <text
       xml:space="preserve"
       transform="scale(0.26458333)"
       id="text1742"
       style="white-space:pre;shape-inside:url(#rect1744);fill:#00ffff;stroke:#9f0000;stroke-width:2.3811" />
    <path
       id="path7042-3"
       style="fill:#00ffff;stroke:#0192c9;stroke-width:0.111601;stroke-dasharray:none;stroke-opacity:1"
       d="m 65.381093,132.87266 6.044059,-4.00926 m 0.01344,3.99291 -6.070795,-3.97656" />
    <ellipse
       style="fill:#ffffff;stroke:#0192c9;stroke-width:0.111601;stroke-dasharray:none;stroke-opacity:1"
       id="path7127"
       cx="-131.91641"
       cy="37.167114"
       rx="2.5531342"
       ry="3.4488325"
       transform="matrix(-0.00231343,-0.99999732,0.99999781,-0.0020947,0,0)" />
    <path
       id="path7042-3-6"
       style="fill:#00ffff;stroke:#0192c9;stroke-width:0.111601;stroke-dasharray:none;stroke-opacity:1"
       d="m 58.960959,113.41841 6.044052,-4.00926 m 0.01344,3.99292 -6.070795,-3.97657" />
    <path
       id="path7042-3-5"
       style="fill:#00ffff;stroke:#0192c9;stroke-width:0.111601;stroke-dasharray:none;stroke-opacity:1"
       d="m 28.886489,124.01311 6.044048,-4.00925 m 0.01344,3.99291 -6.070796,-3.97657" />
    <path
       id="path7042-3-58"
       style="fill:#00ffff;stroke:#0192c9;stroke-width:0.111601;stroke-dasharray:none;stroke-opacity:1"
       d="m 43.826784,121.98718 6.044054,-4.00926 m 0.01344,3.99291 -6.070802,-3.97657" />
    <ellipse
       style="fill:#ffffff;stroke:#0192c9;stroke-width:0.111601;stroke-dasharray:none;stroke-opacity:1"
       id="path7127-1"
       cx="-121.2772"
       cy="65.173904"
       rx="2.5531342"
       ry="3.4488325"
       transform="matrix(-0.00231343,-0.99999732,0.99999781,-0.0020947,0,0)" />
    <ellipse
       style="fill:#ffffff;stroke:#0192c9;stroke-width:0.111601;stroke-dasharray:none;stroke-opacity:1"
       id="path7127-4"
       cx="-110.42177"
       cy="32.396763"
       rx="2.5531342"
       ry="3.4488325"
       transform="matrix(-0.00231343,-0.99999732,0.99999781,-0.0020947,0,0)" />
    <ellipse
       style="fill:#ffffff;stroke:#0192c9;stroke-width:0.111601;stroke-dasharray:none;stroke-opacity:1"
       id="path7127-7"
       cx="-127.34089"
       cy="55.140942"
       rx="2.5531342"
       ry="3.4488325"
       transform="matrix(-0.00231343,-0.99999732,0.99999781,-0.0020947,0,0)" />
    <path
       id="path7394"
       style="fill:#ffffff;stroke:#0192c9;stroke-width:0.0996988;stroke-dasharray:none;stroke-opacity:1"
       d="m 40.875108,113.7885 c 0.80168,0.65607 1.603361,1.31213 2.405041,1.9682 m 0.644909,-2.64806 c -0.196141,0.87849 -0.392282,1.75698 -0.588423,2.63547 m 0.626567,-2.69614 c -1.07313,0.23921 -2.146261,0.47841 -3.219391,0.71762 m -3.545541,-4.21134 c 0.423226,-0.14074 0.873537,-0.19406 1.318396,-0.18019 0.706236,0.022 1.403945,0.26385 1.967764,0.69237 0.691558,0.5256 1.162576,1.28904 1.481503,2.08632 0.157496,0.39372 0.281018,0.80048 0.38033,1.21255"
       inkscape:original-d="m 40.875108,113.7885 2.405041,1.9682 m 0.644909,-2.64806 -0.588423,2.63547 m 0.626567,-2.69614 -3.219391,0.71762 m -3.545541,-4.21134 c 0,0 3.881511,-1.44857 5.147993,3.81105"
       inkscape:path-effect="#path-effect7396" />
    <ellipse
       style="fill:none;stroke:#0192c9;stroke-width:0.306459;stroke-dasharray:none;stroke-opacity:1"
       id="path7400"
       cx="-120.08042"
       cy="46.623367"
       rx="4.1488433"
       ry="5.5912886"
       transform="matrix(-0.00231343,-0.99999732,0.99999781,-0.0020947,0,0)" />
    <path
       id="path7523"
       style="fill:none;stroke:#0192c9;stroke-width:0.115852;stroke-dasharray:none;stroke-opacity:1"
       d="m 45.286151,126.17437 c 0,0 -0.02875,-0.0326 2.244787,2.54282 l -5.012513,0.84201 z M 60.93029,113.7507 c 0,0 -9.144976,12.48883 -14.646787,13.57196" />
    <path
       id="path7548"
       style="fill:none;stroke:#0192c9;stroke-width:0.0953028;stroke-dasharray:none;stroke-opacity:1"
       d="m 34.083436,125.04327 c 14.540138,11.49577 27.876628,8.28801 27.876628,8.28801 m 0.918686,1.00664 c 0,0 0.02219,0.026 -1.73301,-2.03368 l 3.276066,-0.1438 z" />
    <rect
       style="fill:none;stroke:#0192c9;stroke-width:0.274395;stroke-dasharray:none;stroke-opacity:1"
       id="rect8457"
       width="34.224014"
       height="51.879837"
       x="-138.40681"
       y="22.672752"
       transform="matrix(-0.00231343,-0.99999732,0.99999781,-0.0020947,0,0)" />
    <text
       xml:space="preserve"
       transform="scale(0.26458333)"
       id="text8579"
       style="font-style:normal;font-variant:normal;font-weight:normal;font-stretch:normal;font-size:12px;font-family:Arial;-inkscape-font-specification:'Arial, Normal';font-variant-ligatures:normal;font-variant-caps:normal;font-variant-numeric:normal;font-variant-east-asian:normal;writing-mode:tb-rl;direction:rtl;white-space:pre;shape-inside:url(#rect8581);fill:none;stroke:#0192c9;stroke-width:0.771024;stroke-dasharray:none;stroke-opacity:1" />
    <text
       xml:space="preserve"
       transform="scale(0.26458333)"
       id="text8585"
       style="fill:none;stroke:#0192c9;stroke-width:0.77102362;writing-mode:tb-rl;direction:rtl;stroke-opacity:1;stroke-dasharray:none;-inkscape-font-specification:'Arial, Normal';font-family:Arial;font-weight:normal;font-style:normal;font-stretch:normal;font-variant:normal;font-size:12px;font-variant-ligatures:normal;font-variant-caps:normal;font-variant-numeric:normal;font-variant-east-asian:normal;white-space:pre;shape-inside:url(#rect8587)" />
    <path
       id="text8608"
       style="font-style:normal;font-variant:normal;font-weight:normal;font-stretch:normal;font-size:12px;font-family:Arial;-inkscape-font-specification:'Arial, Normal';font-variant-ligatures:normal;font-variant-caps:normal;font-variant-numeric:normal;font-variant-east-asian:normal;writing-mode:tb-rl;direction:rtl;white-space:pre;shape-inside:url(#rect8610);fill:none;stroke:#0192c9;stroke-width:1.45653;stroke-dasharray:none;stroke-opacity:1"
       d="m 101.15539,87.824334 c -0.42433,0.03467 -0.86802,0.110253 -1.14738,0.346037 -0.742381,0.576078 -1.015105,1.325107 -1.131961,2.06457 -0.08222,0.718891 -0.02977,1.478601 0.331948,2.164038 0.326193,0.665498 1.137143,1.166373 2.059273,1.469091 0.7515,0.28216 1.59465,0.562609 2.00183,1.106593 0.54628,0.71333 0.58613,1.558255 0.38714,2.335043 -0.18329,0.61888 -0.61243,1.29491 -1.51345,1.579895 -0.38985,0.09891 -0.83702,0.105935 -1.23907,0.03526 -0.98787,-0.227282 -1.524262,-0.907713 -1.811938,-1.53642 -0.182619,-0.376087 -0.241535,-0.794531 -0.311775,-1.168974 -0.267087,-0.0658 -0.273741,0.09438 -0.214025,0.226285 0.07113,0.83617 0.309608,1.707215 0.998198,2.441258 0.37506,0.394357 0.98143,0.786099 1.73543,0.741265 0.78263,0.11881 1.44252,-0.314777 1.81909,-0.723538 0.81144,-0.890781 0.93086,-2.016174 0.87185,-3.003253 -0.0963,-0.865643 -0.47439,-1.791334 -1.47977,-2.384952 -0.28011,-0.137742 -0.59242,-0.237952 -0.87905,-0.37009 -0.7304,-0.247073 -1.54269,-0.477736 -1.98087,-0.970192 -0.633204,-0.619164 -0.641243,-1.420438 -0.471883,-2.134891 0.155675,-0.51033 0.389333,-1.088268 1.068103,-1.398773 0.51493,-0.155562 1.13064,-0.257913 1.67024,-0.08575 0.92901,0.281404 1.30939,0.990101 1.47185,1.616499 0.10153,0.207875 -0.0135,0.442937 0.13865,0.636983 0.20226,0.06576 0.26524,-0.177796 0.2149,-0.273436 -0.10938,-0.840765 -0.35648,-1.758964 -1.29535,-2.374577 -0.34164,-0.218777 -0.81105,-0.366474 -1.29198,-0.337974 z m 9.49566,0.200128 c -0.92731,0.04979 -1.8619,0.0051 -2.79198,0.01872 -0.75934,-7.36e-4 -1.51867,-0.0015 -2.278,-0.0023 -0.0129,0.21873 -0.11466,0.498727 0.12937,0.671979 0.36123,0.04545 0.73516,-0.03452 1.10372,-0.0043 0.37204,5.96e-4 0.74408,4.21e-4 1.1161,0.0015 0.37868,0.383132 0.24678,0.871487 0.25904,1.305079 -0.0645,0.841655 0.008,1.683286 -0.0176,2.525569 -0.005,2.320535 -0.01,4.641068 -0.0148,6.961605 0.23282,0.08513 0.24356,-0.179515 0.27852,-0.275121 0.0916,-0.598354 -0.0363,-1.199998 0.007,-1.800183 0.006,-2.905578 0.0124,-5.811152 0.0182,-8.716727 0.87014,5.94e-4 1.74028,0.0017 2.61042,0.0024 0.0128,-0.219051 0.11433,-0.500096 -0.13186,-0.673121 -0.0905,-0.02557 -0.19243,-0.01901 -0.28792,-0.01517 z m -14.510668,-0.01313 c -0.95585,0.04857 -1.918664,0.0049 -2.877174,0.01838 -0.541336,-4.2e-4 -1.082676,-9.09e-4 -1.624014,-0.0014 -0.0081,3.797958 -0.01613,7.595917 -0.02414,11.393875 1.701909,0.0017 3.403821,0.0035 5.105733,0.0052 0.01143,-0.218846 0.115289,-0.50005 -0.131858,-0.673121 -0.361285,-0.04276 -0.733979,0.0349 -1.102077,0.0055 -1.196527,-0.0011 -2.393061,-0.0024 -3.589582,-0.0035 0.0031,-1.636309 0.0074,-3.272613 0.01049,-4.908919 1.449872,9.85e-4 2.899741,0.0025 4.349595,0.0037 0.01117,-0.215546 0.11277,-0.490561 -0.124462,-0.66408 -0.350519,-0.04318 -0.711838,0.0334 -1.069129,0.0049 -1.051509,-9.09e-4 -2.103025,-0.0019 -3.154546,-0.0027 0.0026,-1.498186 0.0064,-2.996371 0.0091,-4.494557 1.547591,0.0012 3.095196,0.003 4.642801,0.0043 0.01534,-0.219004 0.109309,-0.491463 -0.122677,-0.670242 -0.09349,-0.02886 -0.198414,-0.02171 -0.297958,-0.01749 z m -10.213315,-0.0014 c -0.546134,0.0089 -1.092277,0.03349 -1.638725,0.0203 -0.008,3.795151 -0.01603,7.590302 -0.02403,11.385456 1.018665,-0.006 2.041489,0.01456 3.05745,-0.0043 0.978378,-0.09818 1.535161,-0.746253 1.772725,-1.330364 0.41194,-1.081829 0.466126,-2.261201 0.01747,-3.355427 -0.182556,-0.429721 -0.460731,-0.899666 -1.094456,-1.110859 -0.340074,-0.176466 -0.126337,-0.486984 0.124269,-0.650722 0.269365,-0.18943 0.461535,-0.414945 0.561017,-0.666782 0.424316,-0.818691 0.413899,-1.687683 0.211715,-2.540814 -0.159798,-0.530373 -0.348076,-1.108049 -0.944167,-1.501355 -0.591718,-0.245962 -1.367938,-0.242844 -2.04325,-0.245082 z m 0.662162,0.665482 c 0.726644,0.01175 1.560472,0.221482 1.819323,0.716092 0.449202,0.761141 0.449403,1.611338 0.262832,2.409874 -0.134676,0.431556 -0.306835,0.942891 -0.922576,1.180102 -1.016038,0.279531 -2.129663,0.09472 -3.190435,0.156936 0.0018,-1.489576 0.0063,-2.979151 0.0094,-4.468726 0.672221,0.08503 1.345699,-5.95e-4 2.021393,0.0057 z m -0.05923,5.103368 c 0.905001,-0.0366 1.874253,0.292331 2.184494,0.884787 0.473633,0.84464 0.464106,1.781126 0.238619,2.660268 -0.151203,0.457456 -0.342106,0.983809 -0.965566,1.256325 -1.084622,0.339704 -2.299519,0.08634 -3.442049,0.180229 0.0061,-1.660813 0.0072,-3.321638 0.01172,-4.982459 0.655125,0.09369 1.313376,0.01592 1.972753,9.09e-4 z" />
    <text
       xml:space="preserve"
       transform="matrix(0.01053695,-3.2546573,1.6151247,0.01072776,-739.93409,2295.0199)"
       id="text9364"
       style="font-style:normal;font-variant:normal;font-weight:normal;font-stretch:normal;font-size:12px;font-family:Arial;-inkscape-font-specification:'Arial, Normal';font-variant-ligatures:normal;font-variant-caps:normal;font-variant-numeric:normal;font-variant-east-asian:normal;writing-mode:tb-rl;direction:rtl;white-space:pre;shape-inside:url(#rect9366);fill:none;stroke:#0192c9;stroke-width:0.796346;stroke-dasharray:none;stroke-opacity:1"><tspan
         x="668.76367"
         y="503.44727"
         id="tspan20688">COLLEGES</tspan></text>
    <text
       xml:space="preserve"
       id="text10964"
       style="font-style:normal;font-variant:normal;font-weight:normal;font-stretch:normal;font-size:12px;font-family:Arial;-inkscape-font-specification:'Arial, Normal';font-variant-ligatures:normal;font-variant-caps:normal;font-variant-numeric:normal;font-variant-east-asian:normal;writing-mode:tb-rl;direction:rtl;white-space:pre;shape-inside:url(#rect10966);fill:none;stroke:#0192c9;stroke-width:1.13298;stroke-dasharray:none;stroke-opacity:1"
       transform="matrix(-0.00371057,-1.2198327,0.92119423,-6.9430953e-4,-532.856,986.59479)"><tspan
         x="686.45703"
         y="670.96094"
         id="tspan20690">FOR YOU</tspan></text>
    <rect
       style="fill:none;stroke:#0192c9;stroke-width:1.30816;stroke-dasharray:none;stroke-opacity:1"
       id="rect12424"
       width="192.47968"
       height="95.73362"
       x="11.949298"
       y="72.285553" />
    <rect
       style="fill:none;stroke:#0192c9;stroke-width:1.33988;stroke-dasharray:none;stroke-opacity:1"
       id="rect12426"
       width="185.166"
       height="88.940079"
       x="15.606143"
       y="75.422249" />
  </g>
</svg>
